<?xml version="1.0" encoding="UTF-8"?>
<svg width="30px" height="32px" viewBox="0 0 30 32" version="1.1" xmlns="http://www.w3.org/2000/svg" xmlns:xlink="http://www.w3.org/1999/xlink">
    <!-- Generator: Sketch 58 (84663) - https://sketch.com -->
    <title>logo</title>
    <desc>Created with Sketch.</desc>
    <g id="组件" stroke="none" stroke-width="1" fill="none" fill-rule="evenodd">
        <g id="Dashboard" transform="translate(-14.000000, -14.000000)" fill="#569AEF">
            <g id="logo" transform="translate(14.000000, 14.000000)">
                <path d="M14.8453333,8.902 C18.7513333,8.902 21.9286667,12.08 21.9286667,15.9853333 C21.9286667,19.23 19.7353333,21.97 16.7533333,22.8053333 L16.7533333,27.2546667 L25.5053333,22.7633333 C25.732,22.6466667 25.8746667,22.4153333 25.8746667,22.1593333 L25.8746667,19.7373333 L29.6906667,19.7373333 L29.6906667,22.1593333 C29.6906667,23.8526667 28.7546667,25.386 27.248,26.1593333 L16.898,31.4693333 C16.2625,31.7942404 15.559073,31.9639859 14.8453333,31.9646667 C14.1315997,31.9639353 13.4281843,31.7941926 12.7926667,31.4693333 L2.44333333,26.1586667 C0.940389707,25.3920794 -0.00411850139,23.8458177 -1.34144748e-05,22.1586667 L-1.34144748e-05,19.7373333 L3.816,19.7373333 L3.816,22.1593333 C3.816,22.4153333 3.958,22.6466667 4.186,22.7633333 L12.9373333,27.254 L12.9373333,22.8053333 C9.956,21.97 7.762,19.23 7.762,15.9853333 C7.762,12.08 10.94,8.902 14.8453333,8.902 L14.8453333,8.902 Z M14.8453333,12.7186667 C13.0419648,12.720504 11.580504,14.1819648 11.5786667,15.9853333 C11.5786667,17.7866667 13.044,19.252 14.8453333,19.252 C16.6466667,19.252 18.112,17.7866667 18.112,15.9853333 C18.112,14.184 16.6466667,12.7186667 14.8453333,12.7186667 L14.8453333,12.7186667 Z M12.7933333,0.825333333 C14.0819585,0.165313849 15.6093748,0.165313849 16.898,0.825333333 L27.2466667,6.13466667 C28.7495014,6.9013715 29.6939642,8.44755885 29.6900124,10.1346667 L29.6900124,12.556 L25.874,12.556 L25.874,10.1346667 C25.874,9.87933333 25.732,9.64733333 25.504,9.53 L15.156,4.22066667 C14.9611237,4.12096152 14.7302096,4.12096152 14.5353333,4.22066667 L4.18533333,9.53066667 C3.95857913,9.64692681 3.81616137,9.88051254 3.81666667,10.1353333 L3.81666667,12.5566667 L4.14483375e-15,12.5566667 L4.14483375e-15,10.1353333 C4.14483375e-15,8.442 0.936,6.90866667 2.44266667,6.13533333 L12.7933333,0.825333333 Z" id="形状"></path>
            </g>
        </g>
    </g>
</svg>